<svg width="27" height="28" viewBox="0 0 27 28" fill="none" xmlns="http://www.w3.org/2000/svg">
<path d="M5.625 20.5813C6.6375 19.5875 7.81425 18.8049 9.15525 18.2334C10.4962 17.6619 11.9445 17.3757 13.5 17.375C15.0562 17.375 16.5049 17.6611 17.8459 18.2334C19.1869 18.8056 20.3632 19.5883 21.375 20.5813V6.125H5.625V20.5813ZM13.5 15.125C14.5875 15.125 15.5156 14.7406 16.2844 13.9719C17.0531 13.2031 17.4375 12.275 17.4375 11.1875C17.4375 10.1 17.0531 9.17188 16.2844 8.40313C15.5156 7.63438 14.5875 7.25 13.5 7.25C12.4125 7.25 11.4844 7.63438 10.7156 8.40313C9.94687 9.17188 9.5625 10.1 9.5625 11.1875C9.5625 12.275 9.94687 13.2031 10.7156 13.9719C11.4844 14.7406 12.4125 15.125 13.5 15.125ZM3.375 24.125V3.875H23.625V24.125H3.375ZM7.875 21.875H19.125V21.5938C18.3375 20.9375 17.4656 20.4451 16.5094 20.1166C15.5531 19.7881 14.55 19.6243 13.5 19.625C12.45 19.625 11.4469 19.7892 10.4906 20.1177C9.53437 20.4462 8.6625 20.9382 7.875 21.5938V21.875ZM13.5 12.875C13.0313 12.875 12.6326 12.7108 12.3041 12.3823C11.9756 12.0538 11.8118 11.6555 11.8125 11.1875C11.8125 10.7188 11.9767 10.3201 12.3052 9.99163C12.6337 9.66313 13.032 9.49925 13.5 9.5C13.9687 9.5 14.3674 9.66425 14.6959 9.99275C15.0244 10.3212 15.1882 10.7195 15.1875 11.1875C15.1875 11.6562 15.0233 12.0549 14.6948 12.3834C14.3663 12.7119 13.968 12.8757 13.5 12.875Z" fill="black"/>
</svg>
