<svg width="27" height="28" viewBox="0 0 27 28" fill="none" xmlns="http://www.w3.org/2000/svg">
<path d="M4.5 25.25V7.25H9C9 6.0125 9.44063 4.95312 10.3219 4.07187C11.2031 3.19062 12.2625 2.75 13.5 2.75C14.7375 2.75 15.7969 3.19062 16.6781 4.07187C17.5594 4.95312 18 6.0125 18 7.25H22.5V25.25H4.5ZM6.75 23H20.25V9.5H18V12.875H15.75V9.5H11.25V12.875H9V9.5H6.75V23ZM11.25 7.25H15.75C15.75 6.63125 15.5295 6.10137 15.0885 5.66037C14.6475 5.21937 14.118 4.99925 13.5 5C12.8812 5 12.3514 5.2205 11.9104 5.6615C11.4694 6.1025 11.2493 6.632 11.25 7.25Z" fill="black"/>
</svg>
