<svg width="27" height="28" viewBox="0 0 27 28" fill="none" xmlns="http://www.w3.org/2000/svg">
<path d="M13.5 23.3656C13.2375 23.3656 12.9701 23.3188 12.6979 23.225C12.4256 23.1313 12.1867 22.9813 11.9812 22.775L10.0406 21.0031C8.05313 19.1844 6.25763 17.3795 4.65413 15.5885C3.05063 13.7975 2.24925 11.8243 2.25 9.66876C2.25 7.90626 2.84063 6.43439 4.02188 5.25314C5.20313 4.07189 6.675 3.48126 8.4375 3.48126C9.43125 3.48126 10.3687 3.69201 11.25 4.11351C12.1313 4.53501 12.8812 5.11176 13.5 5.84376C14.1188 5.11251 14.8687 4.53576 15.75 4.11351C16.6313 3.69126 17.5688 3.48051 18.5625 3.48126C20.325 3.48126 21.7969 4.07189 22.9781 5.25314C24.1594 6.43439 24.75 7.90626 24.75 9.66876C24.75 11.825 23.9531 13.8031 22.3594 15.6031C20.7656 17.4031 18.9563 19.2125 16.9313 21.0313L15.0188 22.775C14.8125 22.9813 14.5736 23.1313 14.3021 23.225C14.0306 23.3188 13.7632 23.3656 13.5 23.3656ZM12.4313 8.09376C11.8875 7.32501 11.3063 6.73926 10.6875 6.33651C10.0688 5.93376 9.31875 5.73201 8.4375 5.73126C7.3125 5.73126 6.375 6.10626 5.625 6.85626C4.875 7.60626 4.5 8.54376 4.5 9.66876C4.5 10.6438 4.84688 11.6799 5.54063 12.7771C6.23438 13.8744 7.06425 14.9383 8.03025 15.9688C8.9955 17 9.98925 17.9656 11.0115 18.8656C12.0338 19.7656 12.8633 20.5063 13.5 21.0875C14.1375 20.5063 14.9674 19.7656 15.9896 18.8656C17.0119 17.9656 18.0056 17 18.9709 15.9688C19.9361 14.9375 20.7656 13.8736 21.4594 12.7771C22.1531 11.6806 22.5 10.6445 22.5 9.66876C22.5 8.54376 22.125 7.60626 21.375 6.85626C20.625 6.10626 19.6875 5.73126 18.5625 5.73126C17.6812 5.73126 16.9313 5.93264 16.3125 6.33539C15.6937 6.73814 15.1125 7.32426 14.5687 8.09376C14.4375 8.28126 14.2781 8.42189 14.0906 8.51564C13.9031 8.60939 13.7063 8.65626 13.5 8.65626C13.2937 8.65626 13.0969 8.60939 12.9094 8.51564C12.7219 8.42189 12.5625 8.28126 12.4313 8.09376Z" fill="black"/>
</svg>
