<svg width="27" height="28" viewBox="0 0 27 28" fill="none" xmlns="http://www.w3.org/2000/svg">
<path d="M10.6875 18.5C8.64375 18.5 6.91425 17.792 5.499 16.376C4.08375 14.96 3.37575 13.2305 3.375 11.1875C3.375 9.14375 4.083 7.41425 5.499 5.999C6.915 4.58375 8.6445 3.87575 10.6875 3.875C12.7313 3.875 14.4608 4.583 15.876 5.999C17.2913 7.415 17.9993 9.1445 18 11.1875C18 12.0125 17.8687 12.7906 17.6062 13.5219C17.3437 14.2531 16.9875 14.9 16.5375 15.4625L22.8375 21.7625C23.0437 21.9687 23.1469 22.2313 23.1469 22.55C23.1469 22.8688 23.0437 23.1312 22.8375 23.3375C22.6312 23.5437 22.3688 23.6469 22.05 23.6469C21.7313 23.6469 21.4687 23.5437 21.2625 23.3375L14.9625 17.0375C14.4 17.4875 13.7531 17.8437 13.0219 18.1062C12.2906 18.3687 11.5125 18.5 10.6875 18.5ZM10.6875 16.25C12.0938 16.25 13.2892 15.7576 14.274 14.7729C15.2587 13.7881 15.7507 12.593 15.75 11.1875C15.75 9.78125 15.2576 8.58575 14.2729 7.601C13.2881 6.61625 12.093 6.12425 10.6875 6.125C9.28125 6.125 8.08575 6.61738 7.101 7.60213C6.11625 8.58688 5.62425 9.782 5.625 11.1875C5.625 12.5938 6.11738 13.7892 7.10213 14.774C8.08688 15.7587 9.282 16.2507 10.6875 16.25Z" fill="black"/>
</svg>
